<?xml version="1.0" encoding="UTF-8"?>
<svg width="316px" height="183px" viewBox="0 0 316 183" version="1.1" xmlns="http://www.w3.org/2000/svg" xmlns:xlink="http://www.w3.org/1999/xlink">
    <!-- Generator: Sketch 47.1 (45422) - http://www.bohemiancoding.com/sketch -->
    <title>right-arrow (1)</title>
    <desc>Created with Sketch.</desc>
    <defs></defs>
    <g id="Page-1" stroke="none" stroke-width="1" fill="none" fill-rule="evenodd">
        <g id="right-arrow-(1)" transform="translate(157.500000, 91.000000) rotate(90.000000) translate(-157.500000, -91.000000) translate(66.000000, -67.000000)" fill-rule="nonzero" fill="#2f3640">
            <path d="M176,141 L43,8 C38,3 31,0 25,0 C19,0 13,3 8,8 C-2,18 -2,32 8,42 L124,158 L8,274 C-2,284 -2,298 8,308 C18,318 33,318 43,308 L176,175 C181,170 183,164 183,158 C183,151 181,146 176,141 Z" id="Shape"></path>
        </g>
    </g>
</svg>