<?xml version="1.0" encoding="UTF-8"?>
<svg width="16px" height="15px" viewBox="0 0 16 15" version="1.1" xmlns="http://www.w3.org/2000/svg" xmlns:xlink="http://www.w3.org/1999/xlink">
    <g fill="#FFFFFF">
        <path d="M7.99096509,10.2959179 C7.54414784,10.2959179 7.16960986,10.6704559 7.16960986,11.1172731 C7.16960986,11.5640903 7.54414784,11.9386283 7.99096509,11.9386283 C8.42135524,11.9386283 8.81232033,11.5640903 8.7926078,11.1369856 C8.81232033,10.6671704 8.44106776,10.2959179 7.99096509,10.2959179 Z" id="Path"></path>
        <path d="M15.5934292,13.2068008 C16.1092402,12.3164517 16.1125257,11.2552608 15.6,10.3681971 L10.4550308,1.45813552 C9.94579055,0.561215606 9.02587269,0.0289774127 7.99425051,0.0289774127 C6.96262834,0.0289774127 6.04271047,0.564501027 5.53347023,1.4548501 L0.381930185,10.374768 C-0.130595483,11.2716879 -0.127310062,12.3394497 0.391786448,13.2297988 C0.904312115,14.1102916 1.82094456,14.6392444 2.84599589,14.6392444 L13.1227926,14.6392444 C14.1511294,14.6392444 15.0743326,14.1037207 15.5934292,13.2068008 Z M14.476386,12.5628583 C14.1905544,13.0556715 13.6845996,13.3480739 13.1195072,13.3480739 L2.84271047,13.3480739 C2.28418891,13.3480739 1.78151951,13.0622423 1.50225873,12.5792854 C1.21971253,12.0897577 1.2164271,11.5049528 1.49897331,11.0121396 L6.65051335,2.09550719 C6.92977413,1.60597947 7.42915811,1.31686242 7.99425051,1.31686242 C8.55605749,1.31686242 9.0587269,1.60926489 9.33798768,2.09879261 L14.4862423,11.0154251 C14.7622177,11.4950965 14.7589322,12.0733306 14.476386,12.5628583 Z" id="Shape" fill-rule="nonzero"></path>
        <path d="M7.78726899,4.53000411 C7.3963039,4.64170842 7.15318275,4.99653388 7.15318275,5.42692402 C7.17289528,5.68647228 7.18932238,5.94930595 7.20903491,6.20885421 C7.26488706,7.19776591 7.32073922,8.16696509 7.37659138,9.1558768 C7.3963039,9.49098973 7.65585216,9.73411088 7.99096509,9.73411088 C8.32607803,9.73411088 8.5889117,9.47456263 8.60533881,9.13616427 C8.60533881,8.93246817 8.60533881,8.74519918 8.62505133,8.53821766 C8.66119097,7.90413142 8.70061602,7.27004517 8.73675565,6.63595893 C8.75646817,6.22528131 8.7926078,5.8146037 8.81232033,5.40392608 C8.81232033,5.25608214 8.7926078,5.1246653 8.73675565,4.99324846 C8.56919918,4.62528131 8.17823409,4.43801232 7.78726899,4.53000411 Z" id="Path"></path>
    </g>
</svg>