<?xml version="1.0" encoding="UTF-8"?>
<svg width="32px" height="32px" viewBox="0 0 46 46" version="1.1" xmlns="http://www.w3.org/2000/svg" xmlns:xlink="http://www.w3.org/1999/xlink">
    <!-- Generator: Sketch 48.2 (47327) - http://www.bohemiancoding.com/sketch -->
    <title>pencil</title>
    <desc>Created with Sketch.</desc>
    <defs></defs>
    <g id="Page-1" stroke="none" stroke-width="1" fill="none" fill-rule="evenodd">
        <g id="pencil" transform="translate(-1.000000, 0.000000)" fill="#000000" fill-rule="nonzero">
            <path d="M31.276,1.722 C30.168,0.611 28.69,0 27.121,0 C25.552,0 24.076,0.61 22.967,1.72 L5.294,19.291 C5.189,19.395 5.109,19.52 5.059,19.658 L1.059,30.658 C0.93,31.013 1.013,31.414 1.274,31.689 C1.466,31.891 1.729,32 2,32 C2.098,32 2.196,31.986 2.293,31.956 L12.242,28.904 C12.398,28.857 12.54,28.771 12.656,28.656 L31.277,10.035 C32.389,8.926 33,7.448 33,5.878 C32.999,4.309 32.389,2.832 31.276,1.722 Z M11.092,27.165 L7.368,28.309 C7.151,27.672 6.813,27.108 6.352,26.647 C5.951,26.248 5.486,25.938 4.996,25.686 L6.7,21 L9,21 L9,23 C9,23.553 9.447,24 10,24 L11.765,24 L11.092,27.165 Z M25.812,12.671 L13.628,24.855 L13.978,23.208 C14.04,22.912 13.966,22.605 13.776,22.371 C13.586,22.136 13.301,22 13,22 L11,22 L11,20 C11,19.448 10.552,19 10,19 L8.422,19 L20.315,7.175 L20.327,7.186 C21.059,6.453 22.034,6.05 23.069,6.05 C24.104,6.05 25.08,6.453 25.811,7.186 C26.542,7.919 26.949,8.893 26.949,9.929 C26.949,10.965 26.546,11.938 25.812,12.671 Z M29.862,8.621 L28.93,9.554 C28.84,8.125 28.247,6.793 27.227,5.772 C26.206,4.75 24.873,4.158 23.44,4.069 L24.378,3.138 L24.38,3.136 C25.11,2.403 26.085,2 27.121,2 C28.157,2 29.131,2.403 29.862,3.136 C30.596,3.869 31,4.843 31,5.878 C31,6.915 30.598,7.889 29.862,8.621 Z M23.293,8.293 L13.293,18.293 C12.902,18.684 12.902,19.316 13.293,19.707 C13.487,19.902 13.744,20 14,20 C14.256,20 14.511,19.902 14.707,19.707 L24.707,9.707 C25.098,9.316 25.098,8.684 24.707,8.293 C24.315,7.902 23.684,7.902 23.293,8.293 Z" id="Shape"></path>
        </g>
    </g>
</svg>