<?xml version="1.0" encoding="UTF-8"?>
<svg width="470px" height="532px" viewBox="0 0 470 532" version="1.1" xmlns="http://www.w3.org/2000/svg" xmlns:xlink="http://www.w3.org/1999/xlink">
    <!-- Generator: Sketch 48.2 (47327) - http://www.bohemiancoding.com/sketch -->
    <title>turn-off</title>
    <desc>Created with Sketch.</desc>
    <defs></defs>
    <g id="Page-1" stroke="none" stroke-width="1" fill="none" fill-rule="evenodd">
        <g id="turn-off" fill="#FFF" fill-rule="nonzero">
            <path d="M328.85,82.196 C318.053,77.479 305.477,82.408 300.76,93.205 C296.043,104.002 300.972,116.578 311.769,121.295 C381.181,151.619 426.997,220.272 426.997,297.33 C426.997,403.364 341.025,489.33 234.997,489.33 C128.955,489.33 42.997,403.372 42.997,297.33 C42.997,220.289 88.797,151.636 158.189,121.292 C168.984,116.572 173.909,103.994 169.188,93.199 C164.468,82.404 151.89,77.479 141.095,82.2 C56.306,119.275 0.331,203.181 0.331,297.329 C0.331,426.935 105.392,531.996 234.998,531.996 C364.59,531.996 469.665,426.928 469.665,297.329 C469.665,203.159 413.667,119.249 328.85,82.196 Z" id="Shape"></path>
            <path d="M234.989,234.667 C246.771,234.667 256.322,225.116 256.322,213.334 L256.322,21.334 C256.323,9.551 246.771,0 234.989,0 C223.207,0 213.656,9.551 213.656,21.333 L213.656,213.333 C213.656,225.115 223.207,234.667 234.989,234.667 Z" id="Shape"></path>
        </g>
    </g>
</svg>