<?xml version="1.0" encoding="UTF-8"?>
<svg width="439px" height="366px" viewBox="0 0 439 366" version="1.1" xmlns="http://www.w3.org/2000/svg" xmlns:xlink="http://www.w3.org/1999/xlink">
    <!-- Generator: Sketch 47.1 (45422) - http://www.bohemiancoding.com/sketch -->
    <title>in</title>
    <desc>Created with Sketch.</desc>
    <defs></defs>
    <g id="Page-1" stroke="none" stroke-width="1" fill="none" fill-rule="evenodd">
        <g id="in" fill-rule="nonzero" fill="#452716">
            <path d="M414.41,24.676 C398.326,8.593 378.964,0.551 356.308,0.551 L264.951,0.551 C262.473,0.551 260.522,1.165 259.098,2.406 C257.667,3.643 256.716,5.499 256.244,7.974 C255.765,10.448 255.484,12.683 255.391,14.681 C255.295,16.678 255.34,19.202 255.535,22.246 C255.721,25.292 255.816,27.195 255.816,27.959 C256.387,29.483 256.583,30.769 256.387,31.814 C256.196,32.857 256.863,33.717 258.385,34.382 C259.905,35.048 260.664,35.573 260.664,35.951 C260.664,36.329 261.76,36.613 263.949,36.806 C266.139,36.998 267.238,37.09 267.238,37.09 L270.951,37.09 L274.093,37.09 L356.321,37.09 C368.881,37.09 379.633,41.561 388.579,50.512 C397.531,59.457 402.001,70.208 402.001,82.773 L402.001,283.77 C402.001,296.333 397.531,307.082 388.579,316.028 C379.634,324.976 368.881,329.449 356.321,329.449 L264.964,329.449 C262.486,329.449 260.528,330.069 259.111,331.304 C257.681,332.546 256.729,334.398 256.254,336.868 C255.778,339.346 255.491,341.584 255.399,343.582 C255.307,345.577 255.348,348.1 255.543,351.145 C255.738,354.191 255.831,356.093 255.831,356.853 C255.831,359.331 256.727,361.466 258.538,363.28 C260.348,365.087 262.487,365.99 264.965,365.99 L356.322,365.99 C378.97,365.99 398.34,357.948 414.417,341.857 C430.501,325.78 438.543,306.411 438.543,283.762 L438.543,82.769 C438.533,60.118 430.491,40.754 414.41,24.676 Z" id="Shape"></path>
            <path d="M338.047,183.27 C338.047,178.322 336.234,174.037 332.62,170.42 L177.302,15.101 C173.686,11.489 169.407,9.677 164.455,9.677 C159.503,9.677 155.222,11.489 151.605,15.101 C147.99,18.718 146.181,23.005 146.181,27.951 L146.181,110.177 L18.274,110.177 C13.322,110.177 9.039,111.989 5.423,115.601 C1.807,119.219 0,123.503 0,128.452 L0,238.087 C0,243.036 1.807,247.32 5.424,250.935 C9.043,254.545 13.326,256.362 18.275,256.362 L146.181,256.362 L146.181,338.587 C146.181,343.532 147.99,347.82 151.605,351.434 C155.226,355.051 159.507,356.862 164.455,356.862 C169.404,356.862 173.686,355.051 177.302,351.434 L332.62,196.122 C336.234,192.501 338.047,188.216 338.047,183.27 Z" id="Shape"></path>
        </g>
    </g>
</svg>