<?xml version="1.0" encoding="UTF-8"?>
<svg width="448px" height="366px" viewBox="0 0 448 366" version="1.1" xmlns="http://www.w3.org/2000/svg" xmlns:xlink="http://www.w3.org/1999/xlink">
    <!-- Generator: Sketch 47.1 (45422) - http://www.bohemiancoding.com/sketch -->
    <title>out</title>
    <desc>Created with Sketch.</desc>
    <defs></defs>
    <g id="Page-1" stroke="none" stroke-width="1" fill="none" fill-rule="evenodd">
        <g id="out" fill-rule="nonzero" fill="#452716">
            <path d="M182.725,338.151 C182.153,336.629 181.956,335.335 182.15,334.288 C182.343,333.248 181.678,332.386 180.153,331.722 C178.628,331.058 177.867,330.531 177.867,330.155 C177.867,329.775 176.774,329.488 174.583,329.3 C172.393,329.109 171.3,329.012 171.3,329.012 L167.59,329.012 L164.45,329.012 L82.224,329.012 C69.662,329.012 58.907,324.543 49.96,315.591 C41.015,306.645 36.543,295.893 36.543,283.333 L36.543,82.335 C36.543,69.773 41.014,59.022 49.96,50.076 C58.907,41.129 69.662,36.654 82.224,36.654 L173.585,36.654 C176.06,36.654 178.006,36.04 179.437,34.8 C180.862,33.563 181.812,31.706 182.29,29.232 C182.766,26.758 183.053,24.524 183.149,22.525 C183.243,20.528 183.197,18.004 183.005,14.959 C182.816,11.915 182.721,10.012 182.721,9.247 C182.721,6.773 181.816,4.636 180.009,2.824 C178.2,1.02 176.06,0.115 173.586,0.115 L82.224,0.115 C59.576,0.115 40.208,8.157 24.123,24.24 C8.042,40.323 0,59.688 0,82.338 L0,283.332 C0,305.98 8.042,325.35 24.123,341.427 C40.208,357.518 59.576,365.56 82.224,365.56 L173.589,365.56 C176.064,365.56 178.011,364.938 179.441,363.706 C180.866,362.467 181.816,360.612 182.294,358.135 C182.77,355.664 183.057,353.419 183.153,351.428 C183.247,349.429 183.201,346.91 183.009,343.865 C182.818,340.817 182.725,338.915 182.725,338.151 Z" id="Shape"></path>
            <path d="M442.249,169.989 L286.935,14.67 C283.321,11.058 279.037,9.246 274.088,9.246 C269.139,9.246 264.855,11.058 261.237,14.67 C257.62,18.287 255.813,22.574 255.813,27.52 L255.813,109.746 L127.907,109.746 C122.955,109.746 118.674,111.558 115.057,115.17 C111.44,118.787 109.633,123.071 109.633,128.02 L109.633,237.656 C109.633,242.604 111.44,246.888 115.057,250.503 C118.678,254.113 122.958,255.93 127.907,255.93 L255.814,255.93 L255.814,338.155 C255.814,343.1 257.621,347.388 261.238,351.002 C264.855,354.619 269.139,356.43 274.089,356.43 C279.037,356.43 283.321,354.619 286.936,351.002 L442.249,195.69 C445.866,192.07 447.674,187.792 447.674,182.842 C447.674,177.894 445.866,173.606 442.249,169.989 Z" id="Shape"></path>
        </g>
    </g>
</svg>